<svg data-name="Layer 2" xmlns="http://www.w3.org/2000/svg" viewBox="0 0 261.565 323.526">
  <path d="M139.962.053c-2.941.315-6.342 2.077-8.722 4.535-1.324 1.37-2.996 4.232-3.782 6.488-.45 1.29-.685 2.491-.685 3.48v.819l-.36-.45c-.201-.246-.56-.64-.785-.875-.235-.236-.426-.471-.426-.527 0-.191-2.75-2.503-3.817-3.21-1.313-.865-3.423-1.931-4.759-2.392-1.2-.426-3.423-.853-5.399-1.032-3.165-.28-6.375.19-10.27 1.526-1.773.607-6.948 3.278-8.25 4.254-3.39 2.548-5.331 5.5-7.071 10.787-.786 2.357-.965 3.255-1.033 5.22-.112 2.783.214 4.119 1.527 6.352l.595 1-.191.56c-.337 1.033-.337 2.38-.011 4.636.359 2.47.337 2.694-.505 6.578-.707 3.243-.887 4.478-.887 6.207 0 2.581.258 3.647 1.515 6.263 1.415 2.94 3.603 5.904 5.545 7.531.954.808 2.458 1.628 3.468 1.908l.696.191v.74c0 .686-.37 3.335-.482 3.447-.023.033-.55 0-1.156-.068-1.09-.123-2.043-.325-3.75-.785-1.694-.46-3.546-.707-4.882-.629-.673.034-1.504.135-1.83.225-1.56.426-2.828 1.335-3.76 2.693-1.01 1.493-2.75 5.523-3.917 9.115-.64 1.964-.696 2.087-1.84 3.872-2.638 4.12-3.188 5.86-3.188 10.046 0 4.243.415 6.656 2.76 16.152l.775 3.165c.034.168-.123.471-.572 1.066-.842 1.1-3.289 3.57-3.48 3.491-.202-.079-2.222-2.346-4.422-4.972a422.769 422.769 0 00-3.592-4.21 454.649 454.649 0 01-2.682-3.142c-3.12-3.738-7.364-8.15-9.44-9.81-2.166-1.751-4.894-3.424-6.735-4.142-.696-.28-.83-.292-3.142-.292-4.737-.011-9.653.348-12.257.887-1.145.247-2.964.336-3.536.18-.37-.102-.617-.292-1.066-.82-1.213-1.414-1.729-1.92-2.279-2.234-.999-.572-1.403-.381-1.403.663 0 .718.37 1.852.853 2.682.382.662 1.437 1.796 1.886 2.02.46.236.258.315-1.224.472-.673.079-1.874.213-2.66.303l-1.425.18-1.269-.528c-2.188-.909-3.95-1.526-4.242-1.493-.584.068-.348.943.583 2.212.337.437.393.583.247.538-.561-.157-1.987-.336-2.75-.348-1.021-.01-1.448.202-1.448.707 0 .46.416.91 1.47 1.583 1.1.707 2.19 1.235 3.592 1.729l1.056.381-1.01.067c-3.536.247-4.726.427-5.299.809-.303.19-.336.505-.056.74.494.438 3.648 1.359 7.15 2.1 2.806.594 3.188.65 5.107.796 2.515.202 6.04-.09 9.586-.785 4.961-.966 7.576-1.201 9.597-.853.583.1 1.28.28 1.549.404.65.28 1.695 1.302 2.503 2.413 1.021 1.425 7.026 11.381 11.044 18.33 3.951 6.835 4.558 7.811 6.612 10.572 1.302 1.751 3.356 3.85 4.523 4.625 1.055.707 2.312 1.29 3.064 1.437 1.953.37 4.153-.202 6.308-1.64.438-.28 2.054-1.705 3.614-3.142 2.706-2.525 2.829-2.615 2.952-2.38.304.584 2.807 6.802 3.469 8.62.864 2.403 2.492 7.431 3.547 11.023l.785 2.671-.527.977c-1.224 2.267-3.323 5.399-5.893 8.789-1.706 2.256-2.795 3.546-4.478 5.342a197.4 197.4 0 00-2.818 3.031l-1.425 1.583-.887.291c-.483.157-1.2.348-1.605.416-1.684.303-5.668-.202-9.653-1.224-3.76-.965-6.78-1.167-9.316-.64-3.008.629-3.805.954-4.86 1.965-.954.909-1.358 1.515-2.122 3.165-.595 1.302-.752 1.549-1.335 2.099-.954.875-1.392 1.728-1.841 3.592-.213.841-.46 1.986-.573 2.548-.145.785-.291 1.144-.606 1.627-.572.842-.954 1.628-1.178 2.39-.169.596-.169.674-.011.921.09.146.314.292.493.337.405.09 1.707-.18 3.065-.629 1.178-.393 1.627-.606 3.176-1.504.595-.336 1.1-.617 1.123-.617s-.101.36-.281.786c-.438 1.032-.427 1.863.022 2.121.27.146.337.135.786-.09.27-.146 1.1-.696 1.84-1.234 2.74-1.998 4.827-3.345 5.95-3.84.673-.302 2.985-.751 4.265-.84.943-.068 1.111-.046 2.694.392 2.581.707 4.164.797 6.207.337 1.347-.292 3.603-1.302 5.859-2.604s7.296-4.76 12.549-8.598c2.559-1.875 5.544-3.951 5.6-3.906.023.022.191.673.382 1.436.37 1.516 1.605 5.691 2.739 9.25.393 1.234 1.28 4.085 1.964 6.341 1.841 6.039 2.357 7.644 3.783 11.673 2.57 7.285 3.614 9.855 6.32 15.546.942 1.975 2.233 4.725 2.884 6.106 2.581 5.522 5.746 11.65 7.33 14.165 1.357 2.155 2.02 3.02 3.423 4.422 2.817 2.84 4.242 3.547 9.765 4.883.987.236 2.447.561 3.244.718l1.447.292.853.764c.472.415 1.83 1.638 3.042 2.727 2.963 2.66 6.892 6.039 8.867 7.621 1.998 1.594 10.484 7.97 12.628 9.485 4.995 3.547 14.378 9.327 20.821 12.852a679.73 679.73 0 0114.816 8.34c6.768 3.917 8.777 5.028 12.178 6.7 3.817 1.886 12.347 5.792 14.962 6.858 4.266 1.74 6.802 3.02 12.314 6.185 4.691 2.705 5.702 3.322 6.42 3.973.595.528.774.786 1.403 2.088 1.145 2.335 1.942 3.154 3.221 3.311.472.056.662.011 1.212-.258.36-.168.887-.55 1.18-.842.729-.73.92-1.414.84-3.008-.145-3.345-2.064-6.308-7.149-11.123-3.087-2.918-5.478-5.276-6.533-6.454-1.403-1.56-3.165-4.265-5.241-8.06-1.033-1.874-2.122-3.423-2.919-4.141-.718-.651-2.065-1.392-3.187-1.785-1.56-.527-3.042-.696-5.916-.65-1.391.022-3.636.044-4.994.033-2.402 0-2.492-.011-3.368-.314-1.605-.562-2.873-1.347-5.107-3.143-2.492-2.02-7.06-6.376-9.473-9.047-2.368-2.615-3.255-3.76-6.061-7.835-4.86-7.06-7.835-10.988-11.427-15.096-.74-.853-1.324-1.56-1.313-1.583.023-.011 1.156-.18 2.514-.381 4.872-.685 12.706-1.942 16.31-2.604 3.692-.674 14.187-2.324 18.15-2.851a249.04 249.04 0 015.892-.685c7.61-.82 11.011-1.347 19.53-3.03 8.216-1.628 10.158-1.965 11.36-1.965.987 0 3.243.426 4.455.842 1.168.393 1.863.381 2.458-.056.674-.483 1.067-1.123 1.123-1.841.123-1.482-.92-3.637-2.638-5.466-1.953-2.077-4.12-3.065-7.34-3.368-1.752-.168-2.84-.033-5.669.707l-2.234.573-2.076.011c-2.279.011-3.053-.1-5.04-.74-1.403-.45-2.559-.977-3.288-1.527-.865-.64-1.83-1.156-3.794-1.987-3.75-1.605-5.635-2.076-7.6-1.908-.706.056-1.1.157-1.683.438a8.194 8.194 0 00-2.671 2.087c-1.022 1.257-2.761 2.851-3.704 3.413-1.37.796-3.143 1.313-5.893 1.694-1.908.259-3.435.315-4.77.18-1.516-.157-4.872-.83-7.857-1.571-7.139-1.774-19.71-4.434-25.95-5.5-3.47-.595-9.115-1.302-13.088-1.628-1.785-.146-3.255-.292-3.289-.325-.034-.023.067-.55.224-1.156 1-3.963 3.02-14.525 3.48-18.173.337-2.648.965-11.897 1.201-17.566.337-8.384-.326-15.568-1.976-21.27-1.762-6.083-5.196-11.998-9.069-15.613-2.009-1.863-6.196-4.815-9.327-6.555-2.122-1.178-7.307-3.715-10.439-5.095l-.595-.27.876-2.615c1.818-5.41 2.436-9.26 2.312-14.277-.034-1.403-.034-2.548 0-2.548s.528.146 1.089.325c2.615.83 7.015 1.942 9.507 2.391 1.235.224 1.773.258 4.647.258 2.536 0 3.547-.045 4.602-.202 5.006-.74 7.778-1.762 8.317-3.075.09-.202.157-.764.157-1.314 0-1.728-.617-3.423-2.974-8.205-1.112-2.244-1.92-3.726-2.616-4.77l-1.01-1.515 3.884-.067c6.936-.135 10.506-.517 15.231-1.673 5.657-1.37 11.808-3.681 17.802-6.678 4.456-2.234 8.8-5.4 12.571-9.148 3.614-3.592 6.42-8.407 7.577-12.975l.314-1.246 1.178-.83c5.983-4.244 13.155-10.91 17.69-16.433 4.76-5.792 9.754-13.952 11.65-19.037.82-2.177 1.336-4.5 1.157-5.197-.124-.505-.46-.74-1.044-.74-.73 0-5.017.74-9.406 1.627-1.976.404-4.804.954-6.286 1.235-9.72 1.83-15.242 3.423-20.462 5.904l-1.38.65 2.952-2.94c6.577-6.555 9.26-9.788 12.29-14.839 1.864-3.097 3.222-5.892 4.367-8.968.595-1.594 1.246-4.007 1.347-4.972.067-.651.045-.74-.236-1.156-.337-.494-.505-.528-1.1-.28-.494.201-7.296 2.266-9.226 2.794-.797.225-3.626.898-6.286 1.515-7.498 1.74-11.864 2.896-16.14 4.277-5.87 1.897-12.841 5.634-22.079 11.83-5.096 3.412-7.52 5.253-12.852 9.777-5.612 4.748-7.576 6.577-15.31 14.255-8.474 8.407-12.638 12.773-14.962 15.68-1.145 1.437-3.603 4.883-5.758 8.093-2.043 3.041-1.942 2.997-2.043.976-.067-1.358.09-2.974.483-4.838.348-1.65.629-2.514 1.179-3.614.235-.482.437-.954.437-1.066 0-.28 2.683-3.064 4.03-4.164.617-.517 1.897-1.516 2.84-2.223s2.065-1.627 2.491-2.042c1.067-1.022 3.278-3.413 3.895-4.22 3.323-4.322 5.085-9.98 4.883-15.659-.045-1.077-.146-2.548-.225-3.255s-.134-1.302-.123-1.324c.011-.011.673.078 1.47.213 4.434.73 12.605-.673 16.77-2.885 3.58-1.896 7.53-5.365 9.338-8.193 1.56-2.425 2.963-6.623 3.536-10.54.247-1.74.28-6.712.045-7.733-.169-.741-.54-1.213-.876-1.123-.123.034-.64.561-1.134 1.167-1.83 2.223-3.468 3.166-5.926 3.413-2.054.213-6.948-1-11.976-2.952-4.176-1.628-5.916-2.02-7.992-1.807zm-9.485 51.677c0 .022-.09.112-.19.19-.18.147-.191.135-.045-.044s.235-.236.235-.146zM45.318 187.5c-.056.224-.235.403-.314.314-.056-.045.258-.54.337-.54.022 0 .01.102-.023.225z" fill-rule="evenodd"/>
  <path d="M20.285 78.623c-9.2-.52-9.622-.942-10.142-10.142C9.623 77.68 9.2 78.103 0 78.623c9.2.52 9.622.943 10.143 10.143.52-9.2.942-9.622 10.142-10.143zM211.53 169.55c-9.2-.521-9.622-.943-10.142-10.143-.52 9.2-.943 9.622-10.143 10.142 9.2.52 9.622.943 10.143 10.143.52-9.2.942-9.622 10.142-10.143zm28.406-49.689c-11.186-.633-11.699-1.146-12.331-12.332-.633 11.186-1.146 11.7-12.332 12.332 11.186.633 11.7 1.146 12.332 12.332.632-11.186 1.145-11.7 12.331-12.332zM40.785 72.863c-5.874-1.081-6.75-1.958-7.832-7.832-1.081 5.874-1.958 6.75-7.832 7.832 5.874 1.081 6.75 1.958 7.832 7.832 1.081-5.874 1.958-6.75 7.832-7.832zm211.635 76.146c-3.752-.691-4.312-1.251-5.003-5.004-.691 3.753-1.251 4.313-5.004 5.004 3.753.69 4.313 1.25 5.004 5.003.69-3.752 1.25-4.312 5.003-5.003zM31.993 53.429c-3.753-.69-4.313-1.25-5.004-5.004-.69 3.753-1.25 4.313-5.004 5.004 3.753.69 4.313 1.25 5.004 5.004.69-3.753 1.25-4.313 5.004-5.004zm85.947 247.989c-3.752-.69-4.312-1.25-5.003-5.004-.69 3.753-1.25 4.313-5.003 5.004 3.752.69 4.312 1.25 5.003 5.004.691-3.753 1.251-4.313 5.004-5.004z"/>
</svg>
